<?xml version="1.0" standalone="no"?>
<!DOCTYPE svg PUBLIC "-//W3C//DTD SVG 20010904//EN"
 "http://www.w3.org/TR/2001/REC-SVG-20010904/DTD/svg10.dtd">
<svg version="1.0" xmlns="http://www.w3.org/2000/svg"
 width="465.000000pt" height="465.000000pt" viewBox="0 0 465.000000 465.000000"
 preserveAspectRatio="xMidYMid meet">
<metadata>
Created by potrace 1.14, written by Peter Selinger 2001-2017
</metadata>
<g transform="translate(0.000000,465.000000) scale(0.100000,-0.100000)"
fill="#000000" stroke="none">
<path d="M2338 4572 c-6 -16 -155 -135 -238 -192 -196 -132 -444 -262 -650
-340 -30 -11 -64 -25 -75 -30 -62 -28 -424 -138 -505 -154 -14 -2 -54 -11 -90
-20 -36 -8 -81 -18 -100 -21 -19 -3 -42 -8 -50 -10 -8 -2 -30 -7 -47 -10 -18
-3 -48 -8 -65 -11 -51 -9 -69 -12 -123 -19 -27 -3 -61 -8 -75 -10 -14 -3 -59
-8 -100 -11 -41 -4 -77 -8 -80 -11 -13 -12 1 -333 24 -565 4 -38 4 -68 -1 -69
-4 0 -42 -2 -83 -3 -41 -2 -76 -4 -77 -5 0 0 8 -40 18 -88 16 -73 47 -218 63
-299 3 -10 9 -39 15 -64 5 -25 12 -56 14 -70 3 -14 8 -37 12 -52 7 -26 -19
-152 -77 -378 -10 -41 -21 -86 -24 -100 -3 -14 -9 -40 -14 -59 -5 -19 -7 -37
-4 -40 2 -3 103 -5 224 -5 l219 0 47 -115 c52 -130 196 -420 231 -467 13 -17
23 -34 23 -38 0 -15 188 -287 211 -306 3 -3 10 -12 15 -21 14 -25 100 -123
189 -214 298 -309 679 -544 1089 -674 l99 -32 66 21 c311 98 587 243 841 439
106 81 140 112 260 231 90 88 244 270 286 336 10 16 31 45 46 64 89 116 276
467 357 671 l42 106 196 -1 c107 -1 196 2 198 5 2 3 -7 41 -21 85 -13 43 -26
88 -28 99 -2 11 -27 99 -55 196 -28 96 -49 184 -47 195 2 10 14 53 26 94 23
80 27 98 35 131 2 11 7 29 10 39 3 10 7 27 10 37 3 15 52 199 71 265 4 14 -3
16 -53 15 l-58 -2 1 35 c0 19 4 71 8 115 19 223 28 467 17 481 -7 10 -5 10
-91 18 -36 3 -76 8 -90 10 -14 2 -59 9 -100 15 -141 21 -411 76 -504 102 -21
6 -47 12 -58 14 -33 7 -190 56 -306 96 -416 143 -829 375 -1048 587 -15 14
-21 15 -26 4z"/>
</g>
</svg>
